# xmcd
# 
# Track frame offsets:
#     150
#     19414
#     39514
#     57430
#     78111
#     95511
#     111020
#     130339
#     146447
#     162137
#     182111
#     201201
# 
# Disc length: 2861
# 
# Revision: 0
# Processed by: cddbd v1.5.2PL0 Copyright (c) Steve Scherf et al.
# Submitted via: BonkEnc v1.0.5
# 
DISCID=9f0b2b0c
DTITLE=Celine Dion - D'eux
DYEAR=1995
DGENRE=Pop
TTITLE0=Pour Que Tu M'aimes Encore
TTITLE1=Le Ballet
TTITLE2=Regarde_Moi
TTITLE3=Je Sais Pas
TTITLE4=La Mémoire D'Abraham
TTITLE5=Cherche Encore
TTITLE6=Destin
TTITLE7=Les Derniers Seront Les Premiers
TTITLE8=J'irai Où Tu Iras
TTITLE9=J'attendais
TTITLE10=Prière Païenne
TTITLE11=Vole
EXTD=CD US 1995 (550 Music/Epic BK 67107) UPC 0074646710722
EXTT0=
EXTT1=
EXTT2=
EXTT3=
EXTT4=
EXTT5=
EXTT6=
EXTT7=
EXTT8=
EXTT9=
EXTT10=
EXTT11=
PLAYORDER=
